<svg width="23" height="32" viewBox="0 0 23 32" fill="none" xmlns="http://www.w3.org/2000/svg">
<g id="Group 3">
<path id="Vector" d="M2.11255 0H3.55005V1.425H4.87505V0H6.31255V4.3125H4.87505V2.875H3.56255V4.3125H2.11255M8.21255 1.4375H6.9438V0H10.925V1.4375H9.65005V4.3125H8.21255M11.5563 0H13.0625L13.9875 1.51875L14.9125 0H16.4188V4.3125H14.9813V2.175L13.975 3.725L12.9688 2.175V4.3125H11.5563M17.1313 0H18.5688V2.8875H20.6063V4.3125H17.1313" fill="white"/>
<path id="Vector_2" d="M2.0625 29.4375L0 6.28748H22.675L20.6125 29.425L11.3188 32" fill="#E44D26"/>
<path id="Vector_3" d="M11.3375 30.0312V8.1875H20.6063L18.8375 27.9375" fill="#F16529"/>
<path id="Vector_4" d="M4.21252 11.0187H11.3375V13.8562H7.32502L7.58752 16.7625H11.3375V19.5937H4.98752M5.11252 21.0187H7.96252L8.16252 23.2875L11.3375 24.1375V27.1L5.51252 25.475" fill="#EBEBEB"/>
<path id="Vector_5" d="M18.4375 11.0187H11.325V13.8562H18.175M17.9187 16.7625H11.325V19.6H14.825L14.4937 23.2875L11.325 24.1375V27.0875L17.1375 25.475" fill="white"/>
</g>
</svg>
