<svg width="41" height="30" viewBox="0 0 41 30" fill="none" xmlns="http://www.w3.org/2000/svg">
<path id="Vector" d="M34.4534 17.2268C33.0541 17.2347 31.8424 17.5708 30.8261 18.0711C30.4508 17.3285 30.0756 16.6796 30.013 16.1949C29.9427 15.632 29.8567 15.2881 29.9427 14.6158C30.0287 13.9434 30.4196 12.9897 30.4196 12.9115C30.4117 12.8412 30.3336 12.4972 29.5283 12.4894C28.7231 12.4816 28.0274 12.6457 27.9492 12.8568C27.871 13.0679 27.7147 13.5526 27.613 14.0529C27.4723 14.7877 26.0026 17.391 25.1661 18.7591C24.8925 18.2275 24.658 17.7584 24.6111 17.3832C24.5407 16.8203 24.4547 16.4764 24.5407 15.804C24.6267 15.1317 25.0176 14.178 25.0176 14.0998C25.0098 14.0294 24.9316 13.6855 24.1264 13.6776C23.3212 13.6698 22.6254 13.834 22.5472 14.0451C22.469 14.2561 22.383 14.7565 22.2111 15.2412C22.0469 15.7259 20.0925 20.0725 19.5843 21.206C19.3264 21.7845 19.0997 22.2458 18.9355 22.5585C18.7713 22.8712 18.9277 22.5819 18.912 22.6132C18.7713 22.879 18.6931 23.0275 18.6931 23.0275V23.0353C18.5837 23.2308 18.4664 23.4184 18.4117 23.4184C18.3726 23.4184 18.2944 22.8946 18.4273 22.1754C18.7166 20.6666 19.4202 18.3135 19.4124 18.2275C19.4124 18.1884 19.5453 17.7741 18.9589 17.563C18.3882 17.3519 18.185 17.7037 18.1381 17.7037C18.0912 17.7037 18.0521 17.8288 18.0521 17.8288C18.0521 17.8288 18.6853 15.1786 16.8404 15.1786C15.6834 15.1786 14.0886 16.4373 13.299 17.5865C12.7987 17.8601 11.7355 18.4386 10.6097 19.0562C10.1798 19.2907 9.73415 19.5409 9.312 19.7676L9.22601 19.6738C6.99017 17.2894 2.85465 15.6008 3.02664 12.3956C3.08918 11.2307 3.4957 8.15841 10.9693 4.43723C17.0905 1.38836 21.9922 2.22485 22.8443 4.08544C24.056 6.74342 20.2254 11.6842 13.8619 12.3956C11.4384 12.6692 10.1641 11.7311 9.8436 11.3793C9.50744 11.0118 9.46054 10.9962 9.33545 11.0666C9.1322 11.176 9.25728 11.5043 9.33545 11.6998C9.52308 12.1923 10.3048 13.0679 11.6338 13.5057C12.7987 13.8887 15.6443 14.0998 19.084 12.7708C22.9381 11.2776 25.9479 7.13431 25.0645 3.6711C24.1655 0.14536 18.3179 -1.01165 12.7908 0.950574C9.49962 2.12322 5.93479 3.95254 3.37062 6.35254C0.321747 9.19816 -0.162945 11.6842 0.0403127 12.7161C0.751715 16.3982 5.82535 18.7982 7.85792 20.5728C7.7563 20.6275 7.66249 20.6822 7.57649 20.7291C6.5602 21.2295 2.69048 23.2542 1.7211 25.3962C0.626634 27.8197 1.89309 29.563 2.73739 29.7976C5.34847 30.5246 8.02209 29.2191 9.46835 27.0692C10.9068 24.9194 10.7348 22.1285 10.0703 20.8542L10.0469 20.8073L10.8443 20.3383C11.3602 20.0334 11.8684 19.7519 12.314 19.5096C12.0638 20.1897 11.884 20.9949 11.7902 22.1676C11.6807 23.5435 12.2436 25.3259 12.9863 26.0295C13.3146 26.3344 13.7055 26.3422 13.9478 26.3422C14.8078 26.3422 15.1987 25.6308 15.6286 24.7787C16.1602 23.7389 16.6293 22.535 16.6293 22.535C16.6293 22.535 16.043 25.7949 17.6456 25.7949C18.2319 25.7949 18.8182 25.0366 19.084 24.6458V24.6536C19.084 24.6536 19.0997 24.6301 19.1309 24.5754C19.1935 24.4816 19.2247 24.4269 19.2247 24.4269V24.4112C19.4593 24.0047 19.983 23.0744 20.7648 21.5343C21.7733 19.5487 22.7427 17.0627 22.7427 17.0627C22.7427 17.0627 22.8365 17.6724 23.1257 18.6731C23.2977 19.2672 23.673 19.9161 23.9622 20.5493C23.7277 20.8777 23.587 21.0653 23.587 21.0653L23.5948 21.0731C23.4072 21.3233 23.1961 21.5891 22.9772 21.8549C22.1798 22.8086 21.226 23.8953 21.101 24.208C20.9524 24.5754 20.9837 24.849 21.2729 25.0679C21.484 25.2243 21.8593 25.2555 22.258 25.2243C22.9772 25.1774 23.4775 24.9976 23.7277 24.8881C24.1186 24.7474 24.5642 24.5363 24.9941 24.2236C25.7759 23.6451 26.2528 22.8243 26.2059 21.7298C26.1824 21.1278 25.987 20.5337 25.7446 19.9708C25.815 19.8692 25.8853 19.7676 25.9557 19.6581C27.1909 17.8523 28.1446 15.8666 28.1446 15.8666C28.1446 15.8666 28.2384 16.4764 28.5277 17.477C28.6762 17.9852 28.9733 18.5402 29.2391 19.0874C28.0821 20.0334 27.3551 21.1278 27.1049 21.8471C26.6436 23.176 27.0033 23.778 27.6834 23.9187C27.9883 23.9813 28.4261 23.8405 28.7544 23.6998C29.1609 23.5669 29.6534 23.3402 30.1068 23.0041C30.8886 22.4256 31.6391 21.6203 31.6 20.5337C31.5766 20.0334 31.4437 19.5409 31.2639 19.0718C32.2489 18.6653 33.5231 18.4308 35.1414 18.6262C38.6202 19.0327 39.3082 21.206 39.1753 22.1129C39.0424 23.0197 38.3153 23.52 38.073 23.6764C37.8307 23.8249 37.7525 23.8796 37.7759 23.9891C37.8072 24.1532 37.9166 24.1454 38.1277 24.1142C38.417 24.0673 39.957 23.3715 40.0196 21.6985C40.1134 19.5487 38.073 17.2034 34.4534 17.2268ZM7.6234 26.2718C6.47421 27.5305 4.85596 28.0073 4.16801 27.6008C3.42534 27.1708 3.71459 25.3181 5.12958 23.9813C5.98952 23.1682 7.10743 22.4177 7.84229 21.9565C8.00646 21.8549 8.25662 21.7063 8.55369 21.5265C8.6006 21.4953 8.63187 21.4796 8.63187 21.4796C8.68659 21.4484 8.74913 21.4093 8.81167 21.3702C9.33545 23.2777 8.83513 24.9506 7.6234 26.2718ZM16.0273 20.5571C15.6286 21.5343 14.7843 24.0438 14.2762 23.9031C13.8384 23.7858 13.5726 21.8861 14.1902 20.0099C14.5029 19.064 15.1674 17.9382 15.5583 17.5005C16.1915 16.7969 16.8794 16.5623 17.0514 16.8516C17.2547 17.2268 16.2775 19.9474 16.0273 20.5571ZM22.9616 23.8718C22.7896 23.9578 22.6332 24.0203 22.5629 23.9734C22.5081 23.9422 22.6332 23.8249 22.6332 23.8249C22.6332 23.8249 23.501 22.8946 23.8449 22.4646C24.0404 22.2145 24.2749 21.9252 24.5251 21.5969V21.6907C24.5251 22.8164 23.4462 23.5669 22.9616 23.8718ZM28.3088 22.6523C28.1837 22.5585 28.1994 22.2692 28.6215 21.3624C28.7857 21.0028 29.1609 20.4008 29.8098 19.8301C29.888 20.0646 29.9349 20.2913 29.927 20.5024C29.9192 21.9096 28.9186 22.4334 28.3088 22.6523Z" fill="#CF649A"/>
</svg>
