<svg width="48" height="32" viewBox="0 0 48 32" fill="none" xmlns="http://www.w3.org/2000/svg">
<path id="Vector" d="M26.9284 32H44.7721C45.3388 32.0001 45.8956 31.8522 46.3864 31.5714C46.8772 31.2905 47.2847 30.8865 47.568 30.3999C47.8513 29.9134 48.0003 29.3615 48 28.7998C47.9997 28.2381 47.8503 27.6864 47.5666 27.2001L35.5833 6.62875C35.3001 6.14235 34.8926 5.7384 34.4019 5.45755C33.9112 5.17675 33.3546 5.02885 32.7879 5.02885C32.2213 5.02885 31.6646 5.17675 31.1739 5.45755C30.6832 5.7384 30.2757 6.14235 29.9925 6.62875L26.9284 11.8922L20.9377 1.59963C20.6542 1.11328 20.2466 0.709386 19.7557 0.428586C19.2649 0.14784 18.7081 0 18.1414 0C17.5747 0 17.0179 0.14784 16.5271 0.428586C16.0362 0.709386 15.6286 1.11328 15.3451 1.59963L0.433413 27.2001C0.14973 27.6864 0.000246899 28.2381 3.05589e-07 28.7998C-0.000246287 29.3615 0.148751 29.9134 0.432008 30.3999C0.715264 30.8865 1.12279 31.2905 1.6136 31.5714C2.10441 31.8522 2.66119 32.0001 3.22795 32H14.4287C18.8666 32 22.1393 30.068 24.3913 26.2987L29.8586 16.9144L32.787 11.8922L41.5758 26.9778H29.8586L26.9284 32ZM14.2461 26.9726L6.42939 26.9709L18.1466 6.85792L23.9931 16.9144L20.0786 23.636C18.5831 26.0816 16.8841 26.9726 14.2461 26.9726Z" fill="#00DC82"/>
</svg>
